PathFileType	4	(X/Y/Z)	Patient4_TMGait_0pt7_02_left_46.trc.trc
DataRate	CameraRate	NumFrames	NumMarkers	Units	OrigDataRate	OrigDataStartFrame	OrigNumFrames
88.607594936709	88.607594936709	4	33	mm	88.607594936709	106	       141
Frame#	Time	Sacral			L.Shoulder			Chest			R.Shoulder			Neck			R.ASIS			L.ASIS			R.Thigh.Superior			R.Thigh.Lateral			R.Thigh.Inferior			R.Patella			L.Thigh.Superior			L.Thigh.Lateral			L.Thigh.Inferior			L.Patella			L.Shank.Superior			L.Shank.Lateral			L.Shank.Inferior			R.Shank.Superior			R.Shank.Lateral			R.Shank.Inferior			R.Heel			R.Midfoot.Superior			R.Midfoot.Lateral			R.Toe			L.Heel			L.Midfoot.Lateral			L.Midfoot.Superior			L.Toe			L.Elbow			L.Wrist			R.Elbow			R.Wrist			
		X1	Y1	Z1	X2	Y2	Z2	X3	Y3	Z3	X4	Y4	Z4	X5	Y5	Z5	X6	Y6	Z6	X7	Y7	Z7	X8	Y8	Z8	X9	Y9	Z9	X10	Y10	Z10	X11	Y11	Z11	X12	Y12	Z12	X13	Y13	Z13	X14	Y14	Z14	X15	Y15	Z15	X16	Y16	Z16	X17	Y17	Z17	X18	Y18	Z18	X19	Y19	Z19	X20	Y20	Z20	X21	Y21	Z21	X22	Y22	Z22	X23	Y23	Z23	X24	Y24	Z24	X25	Y25	Z25	X26	Y26	Z26	X27	Y27	Z27	X28	Y28	Z28	X29	Y29	Z29	X30	Y30	Z30	X31	Y31	Z31	X32	Y32	Z32	X33	Y33	Z33	

106	53.835000000000	728.946686417933	1017.921511454539	528.442242735913	923.609484455327	1422.113829303131	313.552356412977	1038.834291379434	1348.286889476538	465.511135245826	984.407473809130	1438.193431269112	643.048950195522	950.211415488071	1487.543162032668	463.582434115123	957.881067650704	940.989184952930	633.087191716317	926.722796382849	955.427968817373	359.515966093605	982.994879756021	736.225024421066	606.608771650628	893.122324738784	634.115176367098	666.368162446008	963.818258840152	576.774645343990	584.591614078817	956.857375270704	490.284670988379	589.587354983388	1023.553827740884	806.130941776149	401.605411823446	1008.677104768499	678.518374492122	313.699675547051	1117.487264829812	630.955333511806	382.106553000508	1146.939355657834	543.407928543505	371.815692876494	1090.473691717160	467.175747057002	360.268379435342	957.538274963603	404.309843980240	309.491567641325	967.368525560508	272.411381563194	358.476794061846	926.824474235863	403.780212112221	596.839723670046	851.731088732414	301.461787278595	656.308278969197	892.436815440077	206.132570043162	591.635621527398	755.299587681577	42.875601329967	555.181012971292	925.487926277759	96.847996707561	598.087384406132	835.828997014117	36.616571289300	633.101108377834	1044.442775646649	43.652261527421	630.362014551052	790.926485045918	184.156246570602	394.161068631504	851.963866684392	141.748916460849	314.743599675913	955.642726839149	160.833670954212	334.709749941285	1043.813123043413	56.157390220325	309.205674366245	843.556572262255	1069.479090186859	232.967439029957	949.129943353965	829.281153423368	234.128854729684	952.226781952340	1093.020123236715	774.485263672272	1134.469623266424	909.666513450939	742.353018986940	
107	53.846285714286	728.418372321865	1017.727836477851	529.440988241993	922.366283059104	1421.684432848619	313.949576931940	1038.148259261136	1347.999605683622	465.501539942032	984.477471176405	1437.895473869491	643.279185817532	949.446196955394	1487.294212584500	463.993637292499	957.417381616336	940.645286797143	632.996733333116	925.353246229794	955.153772872716	359.503894288678	980.317234385484	735.399159248138	605.933244674640	890.064616331146	633.845710235263	666.523764433483	959.740336129422	575.835659466212	584.541502168383	951.888914253292	489.529680073315	589.662258511597	1022.813783509475	807.763594457167	401.475497192558	1009.591217122923	680.096909678162	313.213438641945	1118.815718987639	633.889615896534	381.463471131296	1149.891008328154	547.588082966221	370.819889976074	1096.741329141316	469.980214018341	359.424837981333	967.217172222326	400.250798553510	309.054546848716	984.315169817081	268.905070804562	358.045197894610	921.355259425793	403.209040945678	596.869279242134	845.667561504557	301.367855551491	656.382075225153	885.505786890977	205.800765042597	591.611940054423	747.419214621911	42.967676255116	555.253885465518	917.535025438107	96.644128787722	597.956286234559	827.912256535325	36.682401175996	633.244424485717	1036.530561216587	43.348272934377	630.438662473056	813.147273246242	170.549323121747	394.476016378139	876.158833817691	132.301985356865	314.501312823065	978.707028144235	157.255583389579	334.122243257467	1072.800253199836	58.005213913311	307.579877097751	839.273968735271	1069.272829212618	234.838058153520	925.255820449941	821.301696169612	236.050363422754	964.230576160129	1091.969116298059	774.460465585740	1159.321285138884	924.415347152153	736.934149314801	
108	53.857571428571	727.955046948052	1017.468969365305	530.170684029329	921.272372869526	1421.271672317259	314.270112736350	1037.540690866532	1347.664816118253	465.435602180745	984.541720327120	1437.510320081417	643.447479103445	948.749830097560	1487.002904196912	464.366964440599	957.012942969503	940.287112569704	632.836987635149	924.259267378376	954.787294769932	359.342997713563	977.706336044254	734.558905019254	605.253038634924	886.959378926325	633.564779659750	666.608516563567	955.661719192743	574.874710411208	584.511791055538	946.901638651163	488.769736602990	589.735472678962	1021.932254310077	808.770227742088	401.197981558855	1009.967831283541	681.022873543977	312.700186500229	1119.429875072115	635.897401169124	380.828180317686	1151.920553678283	550.994207650112	369.969524389560	1102.241295523565	472.263138577469	358.705801815389	976.929986214251	395.631631854352	308.227023173173	1001.258843850868	265.291889018989	357.441116746766	915.857948671543	402.623114646125	596.859425605053	839.569754277185	301.280481310362	656.421042986243	878.565168805985	205.478781254393	591.576549101929	739.541944875616	43.071324591847	555.331780643536	909.600611989337	96.463084632485	597.844453976483	819.991978308142	36.750876214020	633.366002561320	1028.616415270666	43.044147671530	630.516569406151	836.055908932973	156.929192790145	393.990785878297	901.132236307025	122.998887129152	313.781318354163	1002.029045424800	153.841116381628	333.458188444427	1101.863762960653	60.454732686808	306.395470529469	834.823641668730	1069.354516136386	236.180942786767	901.825972730155	815.567358281315	238.094738119255	976.471638295277	1091.364722654395	774.272480022165	1183.029516906076	940.842342487916	730.925551593073	
109	53.868857142857	727.576827107148	1017.161255791198	530.623792214270	920.331509484495	1420.893746769235	314.502668651082	1037.017227246505	1347.299544127464	465.300865427811	984.608897465374	1437.060017479393	643.536719801100	948.135889073241	1486.680931644752	464.684177976823	956.682982700021	939.930619276349	632.622759151871	923.455456161339	954.325653314211	359.043793699139	975.183972776529	733.704351876312	604.635810203937	883.773017578044	633.283969934669	666.631987877374	951.565583556358	573.898321663751	584.529982459000	941.874459180665	488.011992762925	589.816033394813	1020.935029428877	809.140567936840	400.797273274699	1009.808260031097	681.272368355201	312.165889839911	1119.335003336592	636.930282807749	380.218357492251	1153.035652500690	553.579552154283	369.316832420411	1106.936761018088	474.006089762435	358.163294657325	986.657725423719	390.551847208483	307.008858643193	1018.055711168770	261.682954905901	356.708287113834	910.306878513363	402.033408624127	596.816865782971	833.414883683151	301.208680798690	656.428786058437	871.605321021102	205.176153982774	591.532775059241	731.662067602478	43.185390073499	555.410596893177	901.683810335225	96.310496217510	597.756547066495	812.066000663984	36.819175177982	633.457173875703	1020.699320810059	42.751586080311	630.594707833247	859.464080770978	143.528278595656	392.689081957527	926.715813162280	114.033105574166	312.622604212513	1025.421667665210	150.727793325510	332.783482029908	1130.755854744209	63.623547390294	305.834317445321	830.127468173737	1069.761957406166	237.030872275084	879.225607194514	811.922849828848	240.244536423971	988.910961965520	1091.251433711554	773.894743652757	1205.373490092652	958.805887681413	724.377793474297	
